<svg width="93" height="92" viewBox="0 0 93 92" fill="none" xmlns="http://www.w3.org/2000/svg">
<path d="M35.0674 1.89999C17.6674 6.99999 6.56743 18.4 2.26743 35.7C-0.432565 46.7 0.667435 55.7 5.96743 66.4C19.7674 94.4 58.0674 100.2 79.4674 77.5C96.5674 59.4 96.5674 32.8 79.4674 14.6C67.8674 2.19999 50.7674 -2.70001 35.0674 1.89999ZM60.0674 15.5C73.6674 21.5 80.8674 34 79.5674 49.5C78.8674 57.7 76.8674 62.2 71.3674 68.4C59.3674 82.2 37.7674 83.2 23.8674 70.7C18.8674 66.2 15.0674 59.2 13.5674 51.6C12.2674 45.2 12.6674 41.4 15.6674 33.5C22.0674 16.3 42.8674 7.79999 60.0674 15.5Z" fill="#015079"/>
<path d="M40.5674 28.2C36.5674 32.5 38.9674 40.2 44.6674 41.4C49.9674 42.4 54.4674 38.8 54.5674 33.4C54.5674 26.8 45.1674 23.3 40.5674 28.2Z" fill="#DA0B17"/>
<path d="M59.378 38.2836C47.478 43.8836 42.778 54.9836 45.978 69.8836C46.578 72.5836 47.578 74.8836 48.178 74.8836C50.978 74.7836 57.978 70.7836 61.678 67.0836C67.778 60.9836 70.378 49.8836 68.278 38.9836C67.478 35.1836 66.078 35.0836 59.378 38.2836Z" fill="#008235"/>
<path d="M35.8218 37.3491C49.2117 43.1099 54.5001 54.5286 50.8995 69.8564C50.2244 72.634 49.0992 75 48.4241 75C45.2735 74.8971 37.3971 70.7823 33.2339 66.976C26.3702 60.7009 23.4446 49.2822 25.8076 38.0692C26.7077 34.1601 28.283 34.0573 35.8218 37.3491Z" fill="#9CC24A"/>
</svg>
